<?xml version="1.0" standalone="no"?>
<!DOCTYPE svg PUBLIC "-//W3C//DTD SVG 20010904//EN"
 "http://www.w3.org/TR/2001/REC-SVG-20010904/DTD/svg10.dtd">
<svg version="1.0" xmlns="http://www.w3.org/2000/svg"
 width="3508.000000pt" height="3508.000000pt" viewBox="0 0 3508.000000 3508.000000"
 preserveAspectRatio="xMidYMid meet">
<metadata>
Created by potrace 1.14, written by Peter Selinger 2001-2017
</metadata>
<g transform="translate(0.000000,3508.000000) scale(0.100000,-0.100000)"
fill="#000000" stroke="none">
<path d="M22705 34780 c-27 -6 -96 -19 -152 -30 -57 -12 -114 -18 -129 -14
-83 21 -570 -88 -784 -176 -112 -46 -258 -116 -295 -140 -22 -15 -54 -36 -71
-46 -220 -132 -564 -431 -719 -624 -27 -34 -62 -76 -76 -93 -81 -98 -200 -334
-262 -517 -68 -204 -79 -330 -52 -580 15 -132 38 -668 29 -678 -1 -2 -24 11
-50 30 -26 18 -63 44 -83 58 -20 14 -63 41 -96 59 -33 19 -67 40 -75 46 -49
40 -574 307 -795 405 -71 32 -168 76 -215 97 -96 45 -595 263 -710 311 -129
53 -211 83 -315 117 -107 34 -124 40 -365 109 -85 24 -209 61 -275 80 -118 36
-234 64 -465 112 -113 23 -143 31 -305 75 -44 11 -91 23 -105 26 -14 2 -52 10
-85 18 -33 7 -87 19 -120 25 -33 6 -80 16 -105 22 -46 10 -209 32 -360 48
-393 42 -1733 42 -1930 0 -25 -5 -112 -17 -195 -25 -241 -25 -307 -36 -580
-97 -55 -13 -150 -39 -330 -94 -66 -20 -138 -37 -160 -38 -47 -3 -329 -138
-387 -186 -26 -22 -42 -46 -52 -80 -15 -49 -48 -102 -118 -186 -21 -25 -38
-49 -38 -53 0 -4 -20 -32 -45 -62 -24 -30 -61 -76 -82 -102 -117 -147 -405
-445 -588 -608 -33 -29 -73 -66 -90 -82 -49 -49 -288 -251 -502 -424 -153
-124 -248 -200 -316 -256 -40 -31 -89 -72 -111 -89 -112 -90 -248 -186 -348
-245 -32 -18 -85 -49 -118 -68 -138 -80 -188 -109 -240 -137 -30 -17 -80 -44
-110 -61 -91 -50 -184 -96 -197 -97 -12 0 -173 -53 -468 -153 -185 -63 -327
-107 -440 -138 -44 -12 -111 -30 -150 -41 -137 -37 -279 -69 -535 -121 -268
-55 -420 -79 -688 -111 -181 -21 -194 -25 -221 -50 -37 -36 -77 -41 -218 -27
-491 50 -867 156 -1264 357 -106 53 -154 84 -173 108 -14 19 -43 44 -63 57
-21 12 -64 45 -96 72 -45 38 -61 47 -67 37 -40 -65 -47 -399 -11 -594 42 -235
126 -517 221 -746 68 -164 86 -216 110 -317 22 -95 26 -102 165 -367 80 -153
113 -204 165 -260 36 -39 76 -89 89 -111 43 -71 278 -378 333 -435 29 -31 67
-65 84 -78 17 -12 78 -68 135 -125 68 -67 140 -127 207 -171 103 -67 234 -136
260 -136 27 0 22 -31 -16 -87 -131 -195 -653 -1065 -772 -1288 -30 -55 -92
-161 -139 -235 -97 -155 -229 -410 -320 -620 -34 -80 -67 -154 -72 -165 -20
-45 -153 -376 -186 -465 -19 -52 -57 -180 -84 -285 -77 -300 -95 -362 -118
-401 -24 -40 -44 -118 -61 -234 -10 -66 -23 -135 -60 -325 -17 -86 -40 -340
-40 -440 0 -172 30 -388 71 -506 20 -59 49 -109 114 -198 40 -54 34 -66 -42
-89 -172 -54 -244 -72 -328 -81 -130 -16 -457 -13 -620 4 -278 30 -278 30
-330 5 -71 -35 -100 -85 -101 -180 -1 -42 -7 -101 -14 -132 -11 -48 -10 -62 5
-109 51 -160 134 -302 301 -520 170 -220 554 -564 817 -731 127 -81 450 -248
479 -248 7 0 24 -6 38 -13 63 -33 235 -81 409 -113 l93 -18 -6 -45 c-7 -50
-23 -773 -32 -1531 -9 -683 14 -1176 68 -1485 19 -112 21 -154 20 -620 0 -275
3 -556 7 -625 4 -69 7 -126 7 -127 -1 -1 -49 3 -106 8 -127 12 -421 15 -510 5
-58 -6 -127 -22 -240 -55 -85 -24 -379 -139 -515 -201 -101 -46 -221 -102
-240 -113 -11 -6 -80 -41 -154 -79 -74 -37 -142 -74 -150 -82 -9 -8 -33 -21
-54 -30 -21 -9 -55 -28 -75 -44 -21 -16 -55 -39 -77 -51 -41 -24 -61 -40 -202
-164 -124 -109 -254 -260 -313 -362 -56 -97 -120 -231 -120 -251 0 -39 -39
-125 -84 -185 -42 -55 -46 -66 -46 -116 0 -51 3 -58 41 -96 45 -46 44 -33 13
-177 -21 -95 -29 -156 -50 -355 -22 -206 -26 -811 -6 -925 22 -129 44 -234 54
-265 6 -16 18 -59 28 -95 26 -96 93 -268 147 -380 32 -66 55 -108 148 -275 37
-66 93 -158 115 -190 12 -16 34 -50 51 -75 38 -58 92 -132 149 -205 25 -32 59
-76 75 -99 67 -90 233 -264 366 -382 97 -85 309 -226 419 -277 19 -10 63 -41
97 -69 249 -212 585 -371 1193 -563 270 -86 544 -131 770 -127 145 2 382 30
411 48 5 2 24 -19 44 -48 49 -73 78 -113 117 -158 18 -22 53 -65 78 -96 25
-31 59 -72 75 -92 17 -21 51 -63 75 -95 25 -33 62 -80 83 -105 35 -44 80 -101
152 -192 17 -20 46 -59 65 -85 19 -27 51 -68 70 -91 48 -59 104 -131 143 -183
115 -154 191 -256 237 -321 32 -44 234 -311 355 -468 28 -36 57 -75 65 -86 20
-28 91 -121 135 -176 20 -25 51 -65 68 -89 18 -24 46 -60 62 -81 17 -21 44
-56 60 -80 17 -23 49 -64 73 -91 23 -27 42 -53 42 -58 0 -4 21 -33 48 -64 26
-30 70 -83 97 -117 105 -129 273 -330 385 -460 47 -54 105 -122 130 -151 148
-174 394 -428 641 -664 58 -55 202 -208 320 -340 444 -496 1069 -1130 1464
-1484 242 -216 246 -220 500 -481 162 -167 396 -393 500 -485 32 -27 72 -63
90 -80 39 -35 122 -108 185 -162 42 -37 200 -158 273 -211 18 -13 43 -34 57
-46 14 -13 68 -51 120 -86 52 -35 122 -82 154 -104 70 -49 152 -102 221 -145
28 -17 79 -49 115 -72 36 -23 108 -63 160 -91 52 -27 104 -57 115 -68 128
-118 485 -275 780 -345 103 -24 258 -66 275 -76 22 -11 253 -79 320 -94 30 -7
73 -17 95 -23 59 -15 171 -39 245 -52 36 -6 94 -18 130 -25 36 -7 99 -18 140
-25 41 -6 98 -15 125 -20 28 -5 70 -12 95 -15 790 -101 998 -116 1600 -116
213 0 407 5 465 12 55 6 215 13 355 14 217 3 271 6 360 25 58 12 129 26 159
31 30 6 58 12 63 16 9 5 64 18 177 43 24 6 98 10 165 11 216 1 452 46 761 144
28 9 70 22 95 29 63 19 323 115 445 164 198 79 273 110 290 119 11 6 45 22 75
36 366 164 766 377 938 501 43 30 189 153 224 188 10 10 33 18 51 18 33 0 171
87 415 262 325 232 594 471 789 700 104 123 217 226 271 247 31 13 92 73 92
91 0 5 48 50 108 102 112 97 150 131 266 238 167 152 222 205 421 404 130 130
225 218 249 228 21 10 62 44 91 76 467 508 617 683 950 1117 50 64 103 136
119 158 24 35 80 112 221 307 11 15 29 40 40 56 11 16 37 53 58 83 70 95 167
260 247 420 62 123 97 179 169 268 50 62 102 134 116 160 14 26 61 104 105
173 223 352 363 587 510 855 18 33 52 94 75 135 23 41 82 152 130 245 49 94
133 253 188 355 148 278 259 502 310 630 37 94 123 289 131 297 1 1 30 -9 65
-23 131 -53 399 -84 729 -84 229 0 457 37 547 89 17 10 60 21 95 25 132 14
429 62 510 82 93 24 183 58 254 98 64 36 97 65 201 178 22 24 87 72 145 107
272 166 442 294 520 392 75 93 150 222 150 258 0 11 33 57 73 103 111 128 132
157 169 238 20 41 54 104 76 140 57 91 147 253 219 395 62 123 212 455 239
529 102 288 126 388 128 541 2 213 -26 604 -54 745 -5 25 -14 74 -20 110 -52
282 -177 635 -312 875 -136 244 -304 451 -396 491 -18 8 -72 51 -120 95 -47
45 -111 100 -142 123 -139 105 -341 223 -435 255 -33 11 -87 33 -120 49 -170
84 -385 163 -495 182 -90 16 -388 22 -490 9 -99 -11 -304 -59 -408 -96 -41
-13 -75 -23 -77 -21 -2 2 1 21 6 43 5 22 21 132 34 245 38 303 99 649 175 990
9 38 65 317 90 445 5 22 13 67 20 100 7 33 15 78 20 100 4 22 19 99 34 170 14
72 31 155 37 185 6 30 14 73 19 95 5 22 14 69 20 105 6 36 16 85 21 110 32
157 49 297 59 475 4 88 13 174 20 190 6 17 15 50 20 75 4 25 18 92 30 150 36
168 40 189 75 410 9 52 20 122 26 155 17 104 65 438 94 665 8 63 18 188 22
277 l6 161 46 18 c203 76 396 224 571 438 121 148 179 236 246 373 31 64 61
113 70 115 17 3 67 128 83 205 7 34 5 45 -8 57 -17 15 -41 28 -456 246 -247
130 -475 269 -606 370 -25 19 -63 48 -85 64 -59 45 -62 50 -53 103 13 77 10
231 -6 333 -8 52 -19 176 -25 275 -14 266 -47 585 -80 775 -38 214 -51 290
-60 325 -5 22 -16 72 -25 110 -19 82 -22 93 -74 250 -22 66 -62 165 -89 220
l-49 100 51 7 c28 3 98 9 156 12 99 5 218 18 285 31 134 27 278 65 359 96 27
11 53 19 59 19 18 0 220 97 312 150 58 33 198 124 255 165 102 73 352 318 465
454 86 105 86 98 9 142 -16 9 -101 61 -189 114 -88 54 -173 105 -190 113 -16
9 -44 26 -60 38 -17 12 -41 27 -55 33 -14 6 -54 29 -90 51 -36 21 -85 51 -110
65 -25 14 -72 41 -105 60 -33 19 -85 48 -115 65 -30 17 -89 51 -130 75 -41 25
-82 48 -90 51 -16 8 -113 64 -170 99 -19 12 -69 41 -110 65 -41 24 -98 58
-125 77 -28 18 -54 33 -58 33 -4 0 -30 15 -57 33 -27 17 -78 50 -112 71 -35
21 -82 52 -105 68 -23 15 -45 28 -49 28 -4 0 -31 16 -61 35 -29 19 -77 50
-105 68 -29 19 -66 42 -81 53 -16 10 -53 35 -82 54 -154 102 -406 274 -445
305 -25 19 -67 51 -95 70 -27 20 -75 55 -106 78 -31 23 -92 69 -135 101 -43
33 -95 73 -115 90 -19 17 -66 56 -104 86 -37 30 -87 71 -111 90 -23 19 -70 58
-104 85 -357 288 -948 876 -1330 1325 -68 79 -124 147 -175 210 -27 34 -81 99
-120 145 -38 46 -90 109 -115 140 -25 31 -61 76 -80 100 -19 24 -55 69 -80
100 -25 31 -61 76 -80 100 -19 24 -55 69 -80 100 -25 31 -61 77 -80 100 -19
24 -57 73 -85 110 -27 37 -65 86 -83 108 -18 23 -49 64 -70 90 -20 26 -50 63
-65 82 -16 19 -38 48 -50 64 -12 17 -49 65 -81 108 -112 147 -136 180 -136
185 0 3 23 8 50 12 28 4 50 10 50 13 0 13 -105 150 -202 264 -105 125 -95 118
-253 163 -169 48 -371 69 -670 69 -193 1 -541 -10 -605 -18 -19 -3 -87 -7
-150 -10 -434 -18 -1034 -59 -1147 -77 -40 -7 -76 -9 -80 -5 -4 4 9 24 28 45
90 95 448 552 542 692 9 14 31 45 48 70 76 107 402 592 504 750 26 41 87 134
133 205 187 285 272 434 272 474 0 15 7 18 37 17 30 -1 40 4 52 25 23 41 1
100 -63 168 -29 31 -74 88 -101 126 -135 194 -389 403 -649 534 -153 77 -231
106 -367 136 -87 20 -502 30 -584 15z m423 -599 c28 -7 58 -21 65 -30 9 -14
33 -20 110 -25 120 -9 127 -11 134 -47 3 -16 13 -31 22 -34 9 -3 31 -18 49
-33 l33 -27 -123 -125 c-112 -114 -263 -277 -316 -340 -11 -14 -62 -75 -114
-136 -51 -61 -108 -131 -126 -155 -130 -172 -160 -214 -157 -217 4 -4 -4 -15
-32 -47 -7 -7 -13 -17 -13 -20 0 -4 -24 -44 -53 -88 -64 -98 -151 -252 -162
-287 -9 -29 -89 -165 -115 -195 -31 -37 -280 -447 -280 -462 0 -3 -8 -17 -19
-31 -10 -15 -25 -49 -34 -77 -9 -27 -39 -124 -67 -215 -58 -183 -145 -409
-189 -490 -16 -29 -60 -85 -98 -125 -86 -90 -108 -128 -133 -221 -17 -66 -27
-224 -14 -224 3 0 51 11 107 24 197 48 272 58 441 64 118 3 184 1 222 -8 46
-11 78 -10 241 9 281 33 466 58 530 72 99 22 536 11 758 -19 169 -23 605 -45
715 -37 125 10 166 16 235 36 39 11 84 20 100 20 74 -3 86 -13 220 -173 72
-86 185 -216 251 -289 160 -176 239 -271 271 -328 103 -176 623 -811 927
-1131 256 -270 694 -697 908 -886 36 -32 106 -95 155 -139 257 -230 593 -482
845 -634 60 -36 98 -68 132 -110 53 -66 136 -140 276 -247 36 -28 94 -73 130
-100 107 -82 293 -212 495 -345 410 -270 618 -390 1035 -594 107 -53 203 -101
213 -106 9 -5 42 -19 72 -30 30 -11 55 -24 55 -28 0 -6 -70 -18 -250 -41 -112
-15 -397 -39 -600 -50 -124 -7 -220 -18 -265 -30 -163 -43 -185 -45 -440 -44
-137 0 -271 5 -296 11 -52 11 -88 -3 -109 -43 -11 -19 -1 -41 81 -188 51 -91
99 -166 106 -166 8 0 18 -12 24 -27 18 -47 47 -105 78 -158 68 -116 226 -438
254 -520 8 -22 31 -83 52 -135 48 -122 57 -149 85 -240 13 -41 29 -92 37 -113
14 -41 70 -248 84 -312 5 -22 16 -71 24 -110 20 -87 32 -157 45 -260 6 -44 15
-107 20 -140 10 -60 25 -294 35 -560 3 -77 8 -154 10 -172 3 -24 -1 -32 -16
-36 -17 -4 -19 -15 -19 -78 l0 -73 93 -90 c51 -50 120 -114 153 -143 79 -67
314 -218 434 -278 52 -26 124 -66 160 -89 36 -23 97 -59 135 -80 82 -45 105
-64 105 -84 0 -7 13 -27 30 -42 16 -15 30 -34 30 -42 0 -40 -57 -67 -142 -68
-28 0 -45 -8 -74 -35 -81 -77 -224 -184 -293 -219 -15 -8 -52 -18 -82 -22 -82
-10 -255 -78 -293 -115 -6 -5 -17 -3 -26 6 -10 9 -40 18 -67 22 -49 5 -52 4
-97 -37 -30 -28 -48 -53 -52 -76 -9 -49 -16 -50 -357 -38 -181 6 -188 5 -225
-16 -35 -21 -44 -22 -172 -16 -165 9 -278 28 -367 62 -38 14 -98 30 -136 35
-245 32 -724 184 -1172 372 -248 104 -395 176 -532 259 -76 45 -208 117 -293
159 -185 91 -450 242 -592 337 -57 38 -159 102 -228 142 -163 95 -304 192
-410 280 -47 39 -114 88 -150 109 -36 22 -87 59 -114 84 -45 42 -48 48 -44 86
2 23 0 41 -4 41 -15 0 -77 -62 -84 -83 -9 -27 -101 -142 -213 -266 -79 -87
-250 -245 -359 -334 -102 -81 -289 -193 -397 -235 -27 -11 -153 -70 -278 -132
-242 -118 -300 -138 -487 -164 -359 -51 -644 -65 -692 -34 -17 11 -65 17 -183
21 -193 7 -561 48 -682 77 -49 11 -120 32 -160 46 l-71 26 33 47 c48 68 61 98
115 262 27 82 61 169 75 192 13 24 29 70 34 103 5 32 21 90 35 127 28 73 33
121 14 133 -14 9 -102 -83 -168 -176 -106 -148 -137 -186 -244 -292 -94 -95
-127 -121 -202 -160 -50 -27 -125 -77 -168 -115 -270 -235 -423 -328 -671
-409 -71 -24 -157 -52 -190 -63 -217 -74 -228 -76 -408 -74 -93 1 -176 5 -185
9 -37 16 -214 44 -338 53 -75 6 -150 17 -175 27 -24 9 -73 20 -109 24 -36 4
-128 19 -205 34 -114 22 -185 29 -385 36 -148 6 -275 15 -320 25 -41 8 -113
22 -160 30 -173 28 -358 65 -450 89 -302 78 -382 101 -550 155 -174 57 -549
209 -550 222 0 4 39 25 88 48 172 83 365 196 431 255 36 32 92 71 124 87 86
44 188 108 220 138 16 14 60 68 99 120 39 52 99 129 133 171 34 43 82 106 105
141 24 35 57 80 75 99 18 19 84 105 145 190 62 85 118 162 124 170 35 47 -34
-24 -87 -90 -141 -174 -401 -443 -442 -456 -11 -4 -51 -34 -90 -69 -141 -125
-377 -290 -577 -404 -150 -85 -219 -115 -333 -141 -46 -11 -104 -29 -128 -40
-92 -41 -489 -124 -667 -141 -231 -21 -756 -16 -984 10 -47 5 -91 5 -110 0
-17 -5 -71 -12 -121 -16 -85 -5 -96 -4 -198 31 -60 20 -128 36 -151 36 -40 0
-44 -3 -59 -37 -25 -58 -36 -120 -37 -206 0 -43 -7 -133 -16 -200 -16 -120
-15 -191 4 -313 10 -61 26 -89 112 -196 16 -20 39 -52 50 -71 11 -19 38 -46
60 -61 39 -25 59 -61 43 -76 -4 -4 -73 -31 -153 -58 -80 -27 -185 -64 -233
-81 -106 -37 -221 -67 -308 -80 -35 -6 -118 -19 -184 -31 -66 -12 -149 -26
-185 -32 -37 -6 -224 -11 -440 -12 -404 -1 -443 3 -680 66 -41 11 -88 24 -105
28 -16 4 -79 24 -140 43 -60 20 -139 43 -175 51 -36 8 -129 39 -207 69 -149
57 -208 93 -350 213 -51 44 -81 63 -92 59 -9 -4 -70 -23 -136 -42 -110 -33
-133 -36 -283 -41 -252 -7 -488 21 -782 92 -58 14 -124 26 -147 26 -26 0 -81
15 -140 39 -54 21 -109 42 -123 46 -14 4 -47 19 -75 32 -27 14 -89 42 -138 63
-48 21 -108 57 -134 80 -40 35 -48 38 -56 25 -12 -22 -30 -272 -31 -430 -1
-108 4 -151 27 -255 26 -115 31 -128 67 -165 23 -23 52 -71 70 -114 39 -90 61
-125 135 -215 50 -59 69 -74 140 -107 46 -21 86 -43 89 -48 4 -6 -13 -20 -36
-32 -32 -17 -63 -23 -123 -24 -44 -1 -195 -21 -335 -44 -140 -23 -298 -45
-350 -48 -100 -6 -278 12 -470 47 -58 10 -143 24 -190 30 -107 14 -228 54
-372 124 -62 29 -149 70 -192 90 l-80 37 -48 -21 c-45 -19 -56 -20 -156 -10
-59 6 -147 21 -197 33 -80 19 -115 21 -315 20 -124 -1 -238 -3 -255 -4 -39 -2
-234 26 -310 46 -33 8 -80 15 -105 15 -25 0 -78 9 -117 20 -76 21 -252 111
-316 162 -21 16 -64 40 -95 53 -114 46 -278 148 -513 318 -96 69 -203 153
-239 187 -35 33 -68 60 -72 60 -13 0 -48 63 -48 86 0 35 34 58 72 49 78 -18
257 7 517 70 87 21 298 105 466 185 125 59 146 73 188 122 27 31 48 65 49 75
1 30 -68 284 -94 348 -96 231 -175 621 -185 916 -5 151 -3 177 20 295 14 71
31 170 37 219 25 216 53 343 111 518 76 227 97 274 168 372 32 44 93 143 136
220 43 77 124 221 180 320 56 99 121 216 144 260 24 44 58 96 76 115 30 32
515 976 515 1003 0 6 26 51 58 101 32 50 87 149 121 221 34 71 79 157 100 190
20 33 79 148 130 255 51 107 126 246 167 308 107 162 110 168 90 226 -9 25
-16 54 -16 64 0 10 -26 33 -63 57 -34 22 -82 58 -107 81 -25 22 -63 51 -85 64
-82 48 -212 147 -285 215 -41 39 -91 81 -110 95 -41 28 -283 233 -355 301 -27
26 -77 71 -110 100 -163 145 -432 426 -478 499 -21 33 -57 127 -57 148 0 10
10 13 38 9 52 -7 124 -26 137 -37 6 -5 58 -22 115 -39 141 -40 385 -62 670
-60 207 1 501 20 605 38 28 5 84 14 125 20 238 37 608 134 855 226 39 14 88
32 110 39 74 26 259 103 440 184 180 81 209 96 445 220 69 36 152 80 185 97
33 18 89 49 125 70 36 21 88 51 115 65 28 15 77 44 110 64 33 20 76 45 95 57
19 11 70 41 112 67 42 26 100 61 128 77 28 17 80 48 115 70 35 22 93 58 130
80 36 22 80 50 98 62 17 12 48 31 67 42 35 19 106 64 190 121 25 17 77 50 115
75 70 44 116 75 210 140 28 19 66 44 85 55 19 11 67 43 105 71 39 27 88 62
110 77 170 116 362 262 572 437 72 59 351 343 405 411 26 32 70 88 97 124 28
36 60 78 73 94 21 27 63 90 106 160 9 15 34 54 54 85 21 31 38 61 38 66 0 29
51 65 130 93 47 16 126 48 175 70 93 41 127 48 280 57 140 8 624 43 790 57
189 16 722 16 960 -1 1048 -72 1471 -138 1930 -301 116 -41 264 -85 440 -130
251 -64 620 -183 811 -260 78 -32 165 -63 195 -69 58 -13 84 -23 369 -151 477
-215 804 -377 979 -485 137 -85 527 -275 606 -295 85 -22 182 -66 252 -113 53
-36 238 -112 373 -154 76 -23 145 -30 154 -15 3 5 -6 39 -20 77 -14 38 -34
106 -44 152 -11 46 -33 107 -49 135 -60 106 -64 140 -68 615 -5 508 6 753 41
943 43 227 122 504 184 641 57 126 353 498 461 579 70 53 244 150 268 150 11
0 40 11 65 25 59 33 113 51 206 70 43 9 112 33 157 56 49 24 104 43 140 48 90
13 580 6 643 -8z m2182 -12221 c51 -38 349 -225 460 -288 52 -30 111 -64 130
-75 234 -136 509 -283 831 -446 223 -112 383 -205 599 -346 100 -65 203 -128
298 -182 117 -66 399 -140 607 -158 39 -4 124 -24 190 -45 133 -43 260 -77
407 -110 81 -18 102 -26 120 -50 39 -47 80 -61 201 -67 112 -6 112 -6 140 -39
39 -47 102 -68 182 -62 60 5 65 4 65 -15 0 -11 -22 -64 -50 -118 -30 -58 -88
-210 -145 -380 -52 -155 -97 -284 -99 -286 -8 -8 -171 124 -278 225 -63 59
-139 124 -169 144 -54 37 -56 38 -121 30 -57 -7 -72 -14 -107 -45 -49 -44 -75
-52 -149 -42 -31 4 -88 8 -127 9 -38 1 -88 6 -110 10 l-41 8 -37 -79 c-24 -51
-45 -121 -62 -203 -14 -69 -30 -136 -36 -149 -7 -17 -6 -36 6 -72 9 -27 15
-70 13 -100 l-3 -53 -37 33 c-20 17 -51 53 -67 78 -39 58 -39 49 -1 -63 17
-49 47 -147 66 -218 35 -127 106 -291 145 -332 10 -11 19 -24 19 -29 0 -4 12
-24 27 -44 20 -25 44 -92 81 -221 50 -175 53 -189 47 -262 -5 -64 -3 -88 14
-135 11 -32 34 -148 51 -258 61 -389 111 -639 205 -1015 30 -118 63 -271 75
-340 48 -286 112 -551 159 -659 18 -40 35 -98 38 -130 3 -34 14 -70 28 -91 16
-24 24 -55 28 -101 4 -65 4 -66 -19 -61 -63 12 -105 -32 -125 -129 -9 -45 -6
-85 16 -243 14 -103 37 -252 51 -329 14 -78 41 -232 60 -342 20 -110 42 -240
49 -288 8 -48 21 -111 30 -138 16 -48 16 -59 0 -175 -11 -82 -15 -144 -10
-182 14 -111 13 -148 -12 -301 -21 -133 -28 -157 -48 -172 -15 -13 -29 -43
-43 -96 -27 -106 -85 -361 -117 -513 -15 -69 -42 -188 -61 -265 -19 -77 -46
-187 -60 -245 -53 -225 -166 -669 -214 -840 -33 -119 -35 -147 -15 -170 10
-11 28 -20 41 -20 13 0 40 -10 61 -22 44 -27 139 -31 190 -10 35 15 47 38 93
182 16 47 42 126 60 175 39 111 99 307 134 440 15 55 33 125 41 155 8 30 42
150 74 265 60 212 140 522 161 626 10 51 16 60 53 85 23 15 51 36 62 45 25 22
413 219 430 219 7 0 15 -14 19 -31 3 -18 31 -68 61 -113 80 -117 251 -494 307
-675 25 -80 36 -181 28 -260 -5 -55 -10 -65 -50 -107 -102 -105 -274 -204
-475 -274 -106 -37 -165 -63 -280 -124 -16 -8 -47 -18 -69 -21 -43 -7 -86 -44
-86 -73 0 -11 9 -30 19 -43 17 -21 27 -24 78 -22 44 2 72 -3 114 -22 78 -34
144 -45 279 -46 214 -1 402 46 535 134 92 60 98 66 121 107 10 19 36 58 56 86
49 68 68 176 63 364 -2 107 -9 162 -33 265 -17 72 -36 164 -42 205 -18 114
-46 216 -94 341 -67 173 -74 188 -120 238 -40 44 -76 116 -76 154 0 9 -6 27
-12 38 -12 18 -7 26 49 79 72 68 169 110 373 160 69 17 158 42 199 56 99 34
291 74 355 74 32 0 67 -8 90 -20 l39 -19 28 30 c49 53 60 125 30 202 -10 25
-14 27 -68 26 -32 0 -94 -6 -138 -13 l-80 -13 -36 28 c-57 45 -84 51 -161 39
-134 -20 -462 -116 -691 -200 -268 -98 -577 -242 -577 -269 0 -41 -21 -88 -47
-103 -25 -14 -32 -15 -62 -2 -42 18 -34 19 -76 -17 l-35 -31 0 33 c0 33 8 104
31 282 5 45 12 150 15 232 5 164 8 187 28 179 9 -4 16 7 21 33 4 21 14 54 23
73 24 54 50 175 84 396 l32 200 40 18 c23 11 64 30 91 42 76 36 138 52 280 74
318 48 729 58 935 24 59 -10 137 -32 162 -45 49 -25 274 -163 300 -183 15 -12
46 -34 70 -49 24 -15 63 -43 88 -62 53 -41 133 -85 154 -85 17 0 38 -26 111
-135 173 -260 304 -523 351 -704 21 -82 32 -158 58 -401 3 -25 8 -118 12 -207
4 -90 11 -163 15 -163 11 0 22 86 15 121 -5 25 -3 30 12 27 13 -3 19 -18 25
-73 14 -133 -11 -262 -92 -474 -52 -137 -67 -165 -249 -474 -139 -236 -183
-298 -287 -402 -46 -46 -97 -108 -113 -137 -17 -30 -45 -67 -63 -83 -17 -17
-41 -39 -53 -50 -145 -140 -651 -581 -747 -653 -24 -18 -66 -47 -94 -64 -27
-17 -66 -41 -85 -54 -44 -29 -188 -94 -207 -94 -8 0 -31 -8 -51 -19 -45 -23
-133 -51 -159 -51 -11 0 -28 -7 -39 -15 -10 -8 -33 -15 -49 -15 -17 0 -35 -4
-40 -9 -6 -5 -32 -14 -60 -20 -27 -6 -124 -27 -215 -47 -240 -52 -255 -53
-338 -38 -41 8 -124 14 -185 15 -62 0 -148 7 -192 15 -44 8 -163 25 -264 39
l-184 24 -46 -20 c-38 -16 -53 -18 -75 -9 -15 5 -32 10 -37 10 -5 0 -79 -138
-163 -307 -135 -271 -259 -506 -307 -583 -55 -89 -110 -183 -154 -267 -25 -46
-61 -104 -117 -191 -21 -31 -38 -60 -38 -65 0 -4 -18 -34 -40 -66 -22 -32 -40
-61 -40 -65 0 -3 -16 -28 -35 -55 -19 -26 -35 -52 -35 -55 0 -4 -18 -33 -40
-63 -22 -31 -40 -62 -40 -68 0 -7 -9 -20 -21 -31 -12 -10 -30 -37 -42 -59 -11
-22 -31 -55 -45 -73 -14 -18 -32 -45 -41 -61 -9 -16 -29 -49 -45 -72 -17 -24
-51 -78 -78 -119 -26 -41 -56 -86 -66 -100 -11 -14 -29 -44 -40 -67 -12 -23
-26 -44 -32 -48 -9 -6 -60 -86 -120 -190 -14 -24 -32 -51 -41 -62 -9 -10 -29
-40 -44 -68 -15 -27 -33 -57 -40 -65 -7 -8 -24 -33 -37 -56 -13 -22 -32 -55
-43 -73 -58 -95 -113 -182 -147 -235 -21 -32 -38 -62 -38 -67 0 -5 -16 -32
-35 -60 -19 -28 -35 -56 -35 -62 0 -5 -11 -24 -24 -41 -13 -17 -32 -49 -43
-71 -12 -22 -38 -70 -59 -108 -73 -127 -104 -182 -137 -247 -115 -225 -148
-280 -192 -326 -27 -27 -82 -87 -124 -134 -41 -47 -94 -105 -117 -130 -23 -25
-80 -88 -125 -142 -385 -444 -533 -611 -793 -893 -56 -60 -110 -123 -121 -140
-32 -52 -132 -171 -182 -216 -178 -161 -325 -335 -388 -459 -10 -19 -25 -41
-34 -48 -19 -15 -403 -291 -435 -312 -12 -8 -37 -27 -56 -41 -19 -14 -96 -71
-170 -126 -116 -85 -318 -237 -604 -451 -100 -75 -270 -189 -461 -308 -33 -21
-159 -103 -280 -183 -184 -121 -245 -155 -370 -209 -82 -35 -159 -67 -170 -72
-20 -9 -353 -148 -610 -255 -238 -99 -333 -133 -407 -145 -40 -6 -92 -16 -115
-21 -103 -22 -131 -28 -173 -38 -44 -11 -201 -46 -270 -61 -19 -4 -107 -24
-195 -45 -204 -47 -229 -53 -290 -65 -27 -5 -70 -14 -95 -20 -25 -6 -70 -15
-100 -21 -30 -6 -73 -15 -95 -19 -400 -81 -940 -138 -1165 -123 -53 3 -256
-27 -280 -42 -4 -3 -23 2 -42 9 -106 45 -251 63 -587 76 -258 9 -274 11 -496
56 -262 53 -268 54 -390 83 -103 24 -138 33 -215 55 -30 9 -86 24 -125 35
-162 44 -322 104 -427 160 -183 96 -188 99 -303 152 -60 28 -171 81 -245 119
-125 62 -159 80 -302 159 -29 16 -93 54 -143 85 -49 30 -124 75 -165 100 -110
65 -460 300 -574 386 -54 41 -108 82 -120 90 -38 26 -151 114 -176 137 -33 30
-255 218 -311 263 -48 39 -83 69 -256 220 -66 58 -159 137 -208 175 -48 39
-120 97 -160 130 -40 33 -92 76 -116 95 -42 34 -270 234 -587 516 -84 75 -163
152 -176 172 -13 21 -84 96 -158 167 -74 72 -193 186 -264 255 -134 129 -427
458 -549 615 -39 49 -83 101 -100 115 -43 37 -301 296 -370 371 -33 36 -102
110 -154 165 -184 193 -457 556 -599 794 -31 51 -87 123 -142 180 -50 52 -117
129 -147 170 -31 41 -71 95 -90 119 -18 24 -33 50 -33 56 0 7 -9 20 -20 30
-12 10 -29 37 -39 59 -10 23 -25 47 -34 55 -10 7 -17 17 -17 22 0 5 -137 215
-305 466 -168 252 -313 472 -323 488 -10 17 -26 42 -35 57 -9 15 -41 52 -72
83 -30 31 -55 62 -55 67 0 6 -11 26 -25 44 -14 18 -25 36 -25 40 0 4 -11 22
-25 40 -14 18 -25 35 -25 38 0 3 -60 94 -132 204 -73 109 -137 205 -143 214
-34 52 -71 106 -86 123 -9 11 -26 36 -36 56 -11 20 -37 59 -59 85 -22 27 -80
105 -129 174 -49 69 -93 131 -99 139 -6 8 51 -48 126 -125 76 -78 160 -169
187 -205 69 -92 164 -179 194 -179 16 0 53 -25 108 -73 46 -40 92 -76 102 -80
28 -10 76 29 99 80 10 24 23 41 29 38 12 -8 12 8 0 21 -6 5 -23 46 -40 90 -30
82 -93 224 -190 426 -28 58 -51 109 -51 113 0 6 -22 56 -60 140 -11 22 -35 76
-53 120 -88 202 -96 218 -112 205 -17 -14 -19 -9 -30 52 -4 26 -15 44 -36 59
-47 33 -115 144 -160 258 -50 127 -122 406 -155 602 -31 178 -55 264 -75 264
-10 0 -16 21 -20 85 -6 66 -22 130 -72 285 -57 174 -68 200 -85 197 -17 -2
-20 3 -20 45 1 28 -17 109 -42 191 -38 132 -41 146 -28 175 10 25 12 114 10
422 -2 421 -12 583 -42 713 -23 96 -25 190 -8 308 10 70 10 85 -4 105 -13 21
-14 68 -7 380 6 285 10 362 22 385 18 35 24 85 37 309 11 181 23 264 64 440
30 123 72 314 86 390 13 68 40 317 40 369 0 56 84 291 252 706 77 189 84 221
78 335 -1 29 68 297 111 425 11 36 57 157 102 270 90 230 107 288 107 377 0
34 13 120 30 191 34 146 36 170 13 127 -40 -76 -98 -108 -203 -113 -164 -7
-184 -6 -225 15 -63 33 -153 105 -230 183 -38 39 -110 99 -160 132 -178 121
-338 270 -418 390 -31 47 -42 56 -90 71 -75 24 -85 38 -80 112 l5 61 102 1
c57 1 127 8 161 17 80 22 187 20 255 -4 163 -56 403 -144 495 -182 71 -29 87
-34 215 -69 63 -17 126 -37 140 -44 14 -7 43 -16 65 -20 22 -4 60 -16 85 -28
42 -20 61 -22 275 -22 204 0 239 2 310 22 44 11 118 24 164 28 46 4 155 24
243 46 166 41 262 81 353 148 28 20 68 42 90 49 85 25 219 155 266 257 28 61
25 77 -24 103 -23 12 -47 22 -53 22 -6 0 -17 7 -25 16 -7 9 -49 34 -93 56
-146 73 -144 71 -229 246 -96 195 -144 333 -157 453 -6 51 -9 93 -7 96 2 2 51
-19 108 -46 98 -47 465 -175 629 -220 71 -20 90 -20 385 -13 l310 7 52 28 c65
33 96 35 112 4 15 -29 158 -152 231 -199 30 -20 96 -55 145 -78 50 -24 141
-67 203 -96 62 -30 119 -54 126 -54 6 0 16 -4 21 -9 6 -5 28 -16 50 -24 22 -8
78 -28 125 -45 317 -113 532 -159 800 -171 325 -15 655 -3 825 29 145 27 294
50 327 50 39 0 131 17 163 31 11 4 40 12 65 18 59 13 199 63 340 120 41 17 78
31 81 31 23 0 111 50 190 107 164 119 269 205 269 220 0 4 -34 19 -75 32 -72
24 -79 29 -195 146 -110 112 -123 129 -166 221 -78 168 -86 195 -91 341 -3 72
-3 147 1 166 l6 34 58 -20 c83 -29 241 -36 772 -36 541 -1 614 5 743 54 51 20
118 45 149 56 l58 21 26 -31 c44 -52 147 -119 297 -194 220 -108 283 -136 407
-177 63 -22 160 -55 215 -74 55 -19 136 -44 180 -56 44 -12 103 -28 130 -35
28 -8 59 -17 70 -19 11 -3 58 -14 105 -25 221 -53 379 -77 580 -86 69 -4 155
-13 193 -21 38 -8 117 -18 175 -24 197 -17 346 -31 492 -45 80 -8 244 -17 365
-20 121 -3 316 -7 433 -11 292 -7 377 6 690 107 103 34 223 74 268 90 44 16
87 29 95 29 28 0 125 36 196 73 39 20 117 57 172 81 l101 45 57 -30 c32 -16
96 -38 143 -49 47 -11 177 -42 290 -69 239 -58 269 -63 580 -97 324 -36 417
-43 470 -38 25 2 119 6 210 8 178 5 296 19 563 67 85 16 237 55 322 84 84 28
227 67 310 85 33 7 119 31 190 55 141 46 210 66 295 86 94 21 170 49 213 77
72 47 269 233 345 327 41 49 110 127 154 172 91 92 78 90 168 23z m-19613
-7596 c42 -10 90 -14 126 -11 31 3 57 1 57 -4 0 -4 11 -32 24 -61 37 -80 87
-205 157 -388 35 -91 71 -171 81 -178 10 -7 18 -19 18 -26 0 -23 157 -488 175
-516 4 -6 16 -8 27 -4 21 6 21 4 15 -92 -6 -94 -6 -100 23 -158 22 -46 32 -87
40 -166 11 -103 23 -171 36 -205 6 -14 2 -16 -22 -13 -22 2 -30 9 -32 28 -7
70 -16 92 -50 133 -34 42 -124 120 -182 160 -206 141 -328 213 -495 293 -209
99 -329 143 -435 158 -48 7 -181 45 -378 107 -151 47 -261 63 -413 57 -131 -5
-148 -12 -175 -77 -27 -63 -11 -146 38 -199 30 -31 108 -52 194 -52 117 0 179
-14 599 -138 158 -46 345 -121 345 -137 0 -16 -53 -89 -92 -128 -26 -26 -48
-56 -48 -67 0 -18 -108 -235 -152 -306 -34 -54 -62 -144 -99 -314 -50 -235
-43 -322 53 -639 29 -98 37 -113 125 -229 51 -68 93 -131 93 -141 0 -22 36
-43 132 -75 108 -38 244 -58 378 -57 137 1 196 11 276 46 46 20 68 25 100 20
73 -11 125 34 104 89 -11 29 -32 42 -85 51 -22 4 -69 24 -105 44 -36 20 -130
61 -210 90 -259 95 -439 201 -524 309 -44 56 -38 220 15 383 59 184 219 527
300 644 27 39 52 85 55 103 4 18 12 32 18 32 6 0 97 -43 201 -96 196 -98 374
-211 459 -290 51 -46 52 -50 76 -184 6 -30 14 -79 19 -108 6 -29 14 -67 20
-85 25 -83 41 -145 41 -159 0 -9 7 -38 14 -64 8 -27 24 -89 36 -139 11 -49 27
-106 34 -125 13 -34 43 -126 111 -340 19 -58 48 -141 65 -185 46 -115 58 -156
86 -285 24 -110 39 -160 90 -297 l23 -63 -52 -24 c-29 -13 -61 -31 -72 -40
-20 -15 -19 -16 18 -51 20 -20 37 -43 37 -51 0 -8 9 -34 21 -57 32 -64 69
-171 61 -178 -4 -3 -27 -14 -52 -24 -25 -10 -58 -23 -75 -30 -36 -15 -114 -40
-170 -54 -257 -64 -365 -81 -482 -76 -215 10 -444 28 -498 40 -112 25 -175 42
-187 52 -7 5 -39 15 -70 22 -32 7 -58 17 -58 22 0 5 -9 9 -20 9 -11 0 -37 9
-57 20 -21 11 -46 20 -56 20 -11 0 -31 9 -46 19 -15 11 -40 23 -57 27 -16 4
-36 12 -44 19 -8 7 -43 25 -77 41 -35 15 -63 31 -63 35 0 4 -16 10 -35 13 -19
4 -35 10 -35 15 0 7 -80 51 -94 51 -4 0 -12 5 -19 11 -15 13 -99 62 -153 89
-23 11 -53 32 -65 47 -35 38 -96 99 -175 173 -69 65 -587 657 -665 760 -151
202 -308 691 -310 970 0 52 -5 118 -10 145 -37 195 -47 353 -29 485 26 199 35
257 62 390 10 53 33 115 64 171 7 15 27 64 42 110 16 46 41 107 55 134 15 28
34 66 44 85 10 19 28 49 41 67 12 17 22 35 22 41 0 5 7 16 16 23 9 8 27 30 39
49 12 19 52 65 88 102 50 49 81 72 124 88 31 12 68 27 82 35 31 16 142 67 191
87 19 8 62 23 95 33 33 9 71 21 84 27 14 5 43 13 65 18 23 5 79 18 126 29 197
49 285 60 540 70 296 13 355 12 427 -5z m24473 -1684 c0 -5 -10 -10 -22 -10
-19 0 -20 2 -8 10 19 13 30 13 30 0z m-380 -1403 c0 -2 -9 -21 -20 -43 -13
-27 -19 -33 -19 -19 -1 35 11 65 25 65 8 0 14 -1 14 -3z m-22592 -1325 c14
-21 13 -22 -11 -22 -25 0 -42 23 -31 41 8 14 25 6 42 -19z"/>
<path d="M20015 30671 c146 -73 177 -84 359 -130 110 -28 202 -49 204 -47 4 5
-139 84 -233 127 -51 24 -82 33 -120 32 -34 -1 -93 13 -185 42 -199 64 -200
63 -25 -24z"/>
<path d="M21885 30375 c-5 -2 -23 -6 -38 -9 -15 -4 -25 -11 -22 -16 10 -17 62
-11 86 10 22 18 23 19 4 19 -11 0 -24 -2 -30 -4z"/>
<path d="M23543 30283 c9 -2 23 -2 30 0 6 3 -1 5 -18 5 -16 0 -22 -2 -12 -5z"/>
<path d="M23675 30265 c100 -15 149 -17 95 -5 -19 5 -69 11 -110 14 l-75 5 90
-14z"/>
<path d="M23828 30253 c6 -2 18 -2 25 0 6 3 1 5 -13 5 -14 0 -19 -2 -12 -5z"/>
<path d="M23938 30243 c7 -3 16 -2 19 1 4 3 -2 6 -13 5 -11 0 -14 -3 -6 -6z"/>
<path d="M24018 30243 c29 -2 74 -2 100 0 26 2 2 3 -53 3 -55 0 -76 -1 -47 -3z"/>
<path d="M21546 30230 l-168 -5 203 -84 c112 -46 280 -119 373 -163 167 -77
234 -97 205 -61 -8 9 -38 34 -68 57 -54 42 -76 58 -172 133 -30 23 -77 59
-105 81 -28 21 -61 41 -75 43 -13 2 -100 2 -193 -1z"/>
<path d="M21580 29936 c0 -9 311 -147 322 -143 13 4 -86 53 -229 113 -81 34
-93 38 -93 30z"/>
<path d="M17853 23348 c-27 -30 -101 -147 -76 -123 12 12 96 124 107 143 12
21 1 13 -31 -20z"/>
<path d="M22115 20045 c-20 -61 -24 -65 -63 -65 -30 0 -45 -7 -69 -32 -58 -62
-65 -96 -37 -188 l16 -54 -28 -23 -29 -23 42 0 c39 0 44 -3 67 -43 36 -60 61
-81 152 -127 75 -37 144 -85 134 -93 -3 -2 -36 -16 -74 -32 -38 -15 -107 -48
-155 -73 -47 -24 -116 -60 -153 -79 -76 -39 -214 -163 -503 -450 -283 -281
-363 -379 -430 -526 -50 -112 -159 -451 -214 -672 -27 -110 -57 -219 -65 -241
-14 -40 -114 -547 -155 -784 -40 -236 -54 -398 -55 -655 -1 -320 11 -445 40
-445 9 0 73 29 142 63 70 35 133 66 141 68 12 4 16 61 22 320 11 423 42 721
104 984 13 55 27 123 31 150 6 47 33 126 194 585 34 96 97 248 140 336 122
251 166 299 509 558 139 105 287 217 330 249 77 60 189 122 284 157 63 24 200
60 205 55 2 -2 -11 -11 -30 -20 -18 -10 -45 -28 -59 -42 -15 -13 -51 -41 -82
-61 -100 -67 -214 -188 -307 -327 -25 -37 -80 -106 -124 -153 -162 -179 -242
-332 -376 -722 -34 -98 -82 -294 -106 -425 -13 -76 -14 -103 -3 -177 11 -85
11 -89 -20 -202 -31 -112 -32 -120 -34 -338 -1 -177 2 -245 17 -328 26 -150
80 -352 101 -378 7 -8 221 38 435 94 135 35 279 70 320 79 137 28 128 21 82
60 -117 101 -193 318 -177 508 6 71 4 89 -11 118 -25 48 -31 200 -11 271 9 29
18 78 21 108 7 86 41 163 100 228 48 51 54 64 65 125 16 94 44 164 91 228 21
30 59 95 84 145 45 91 86 141 206 249 25 22 65 64 89 94 54 65 130 115 230
151 42 15 99 41 126 59 28 17 82 41 120 53 39 11 100 36 137 54 92 46 199 74
283 74 42 0 110 10 169 25 107 27 211 32 286 13 25 -6 100 -10 166 -9 180 3
288 -28 424 -120 30 -20 71 -40 90 -44 124 -24 278 -138 366 -271 21 -32 73
-92 114 -133 112 -112 176 -242 187 -379 l6 -72 69 -69 c71 -72 98 -122 123
-221 8 -30 26 -86 40 -125 19 -50 27 -92 29 -155 2 -47 9 -118 15 -158 11 -63
10 -84 -4 -150 -10 -42 -29 -99 -42 -127 -14 -27 -34 -81 -45 -119 -64 -233
-244 -373 -482 -377 -80 -2 -79 -2 54 -16 179 -19 601 -89 715 -118 49 -13
149 -44 220 -69 72 -24 188 -60 258 -79 l128 -34 -2 139 c-1 111 2 143 14 156
25 28 52 320 38 402 -9 48 -9 107 -1 229 9 136 8 192 -5 330 -26 271 -53 390
-122 541 -26 57 -75 198 -98 285 -27 98 -130 286 -231 421 -60 79 -195 213
-330 325 -105 86 -145 126 -239 240 -38 46 -97 112 -129 147 -33 34 -56 62
-53 62 15 0 188 -79 252 -114 37 -22 121 -74 184 -116 64 -42 140 -90 170
-106 29 -15 107 -78 174 -139 66 -60 161 -143 211 -183 122 -99 157 -143 360
-447 226 -339 233 -352 309 -540 36 -88 84 -205 107 -260 22 -55 64 -174 91
-264 28 -90 64 -197 80 -238 83 -205 131 -545 128 -890 -1 -146 2 -197 12
-209 7 -8 35 -27 63 -41 62 -31 251 -149 289 -180 16 -13 34 -23 41 -23 6 0
70 34 141 76 72 42 159 91 195 109 36 18 78 47 94 64 28 29 29 32 15 58 -8 14
-33 45 -56 69 -37 37 -94 120 -166 244 -12 19 -29 46 -39 59 -22 28 -23 42 -4
35 11 -4 16 10 21 63 15 162 -2 368 -42 488 -15 46 -17 48 -23 24 -4 -14 -8
-127 -8 -250 -1 -123 -1 -233 -2 -244 l-1 -20 -16 20 c-39 50 -86 174 -109
289 -26 129 -108 456 -150 596 -33 107 -134 363 -180 454 -19 38 -52 94 -73
125 -21 31 -81 144 -134 251 -107 220 -219 395 -311 484 -34 34 -139 149 -232
256 -181 206 -386 412 -482 482 -31 23 -91 67 -132 98 -173 131 -399 271 -540
337 -52 24 -189 79 -305 123 -115 43 -247 94 -291 114 -208 91 -499 178 -659
196 -49 5 -144 17 -210 26 -94 12 -232 17 -640 19 -562 4 -700 12 -1123 66
-333 42 -378 54 -406 112 -13 28 -16 30 -21 12z m2892 -961 c-3 -3 -12 -4 -19
-1 -8 3 -5 6 6 6 11 1 17 -2 13 -5z m-3171 -1530 c5 -18 0 -32 -16 -50 -31
-32 -35 -24 -20 31 14 51 27 57 36 19z"/>
<path d="M13890 19814 c-1 -29 -181 -60 -616 -108 -262 -29 -440 -40 -954 -61
-201 -9 -383 -20 -405 -25 -22 -5 -75 -10 -117 -10 l-78 0 -1 53 c0 28 -4 72
-8 97 -6 40 -8 35 -14 -54 -4 -54 -10 -102 -12 -106 -3 -4 -31 -11 -62 -14
-92 -11 -268 -53 -407 -96 -70 -22 -158 -45 -194 -50 -250 -40 -623 -164 -876
-293 -112 -57 -371 -225 -556 -360 -123 -90 -307 -263 -428 -401 -167 -191
-251 -284 -344 -381 -130 -137 -251 -333 -337 -545 -47 -114 -81 -160 -119
-160 -24 0 -24 -1 -8 -19 16 -17 14 -22 -23 -87 -48 -83 -160 -352 -195 -467
-40 -132 -92 -338 -140 -547 -45 -199 -65 -264 -73 -243 -9 25 119 653 209
1023 32 135 63 274 68 310 5 36 12 81 15 100 l7 35 -17 -23 c-10 -13 -30 -57
-46 -97 -15 -40 -41 -100 -57 -132 -16 -32 -37 -83 -47 -113 -11 -32 -31 -68
-49 -85 -53 -50 -97 -178 -116 -338 -6 -53 -14 -75 -33 -95 -22 -23 -32 -58
-67 -237 -23 -115 -48 -230 -55 -255 -8 -25 -21 -114 -29 -199 -15 -151 -16
-155 -47 -187 -80 -83 -322 -157 -367 -112 -9 9 -12 9 -12 -4 0 -16 73 -112
123 -160 15 -16 69 -57 120 -93 139 -100 129 -86 121 -159 -4 -39 -2 -77 4
-96 14 -38 -6 -97 -35 -106 -42 -12 -166 -81 -179 -99 -20 -28 -17 -79 5 -106
17 -21 27 -24 83 -22 38 0 102 13 161 31 l99 30 10 -29 c5 -16 14 -29 19 -29
17 0 134 34 139 40 3 4 28 7 55 9 28 1 64 11 82 21 18 10 49 22 69 26 47 9 52
27 20 68 -14 19 -26 39 -26 44 0 5 -12 17 -26 27 -14 9 -43 33 -65 52 l-39 36
37 33 c75 66 220 157 310 195 27 11 30 16 21 33 -7 13 -9 99 -5 255 5 221 8
247 41 406 20 94 42 186 50 205 8 19 17 54 20 77 16 118 117 454 199 663 125
318 481 947 626 1105 25 28 84 80 131 117 47 36 128 105 180 154 119 109 182
160 234 186 23 12 102 61 176 110 134 89 316 186 327 175 3 -4 -55 -66 -129
-139 -128 -127 -140 -142 -270 -348 -129 -206 -139 -224 -203 -400 -76 -211
-80 -223 -135 -420 -23 -80 -43 -167 -46 -195 -3 -27 -10 -61 -15 -75 -5 -14
-23 -118 -39 -233 -26 -177 -30 -237 -30 -415 0 -216 11 -341 36 -427 8 -27
56 -134 107 -237 80 -166 94 -188 115 -188 13 0 105 20 205 44 100 25 209 49
242 55 108 18 427 34 539 27 l111 -6 -35 21 c-89 54 -146 133 -174 245 -8 33
-31 111 -50 174 -46 148 -49 183 -36 375 22 331 30 374 84 467 13 24 29 62 35
85 6 23 28 66 47 95 20 29 46 76 59 103 12 28 42 74 66 104 75 92 176 238 251
361 18 30 86 108 151 173 114 114 198 179 269 207 18 7 57 33 85 57 78 66 159
111 247 139 69 21 96 24 220 24 77 -1 157 4 176 10 83 24 253 6 371 -40 27
-11 73 -20 102 -20 135 0 278 -65 412 -189 51 -47 126 -106 166 -131 65 -41
132 -97 300 -254 61 -56 111 -130 148 -216 39 -93 50 -114 81 -155 97 -128
148 -364 108 -500 -16 -57 -16 -348 1 -407 9 -33 11 -71 6 -130 -4 -46 -8
-162 -8 -258 -2 -169 -3 -177 -30 -235 -36 -76 -67 -117 -127 -164 l-48 -38
109 -7 c129 -8 317 -38 449 -73 62 -16 130 -26 198 -28 56 -2 102 -2 102 0 0
2 18 90 39 197 21 106 42 211 47 233 4 22 8 87 9 145 1 58 11 168 23 245 18
114 22 179 21 345 -1 240 -14 341 -64 505 -20 66 -47 170 -60 230 -13 61 -35
144 -50 185 -35 97 -125 277 -182 362 -68 103 -321 378 -433 471 -28 23 5 6
85 -44 188 -118 249 -163 336 -250 179 -179 309 -402 424 -724 31 -88 90 -250
130 -360 54 -146 78 -228 90 -305 10 -57 21 -114 26 -127 11 -30 55 -292 69
-408 27 -239 41 -549 31 -670 -15 -165 -20 -179 -60 -183 -24 -3 -31 -7 -27
-20 3 -9 8 -39 12 -65 l6 -48 27 24 c14 14 41 32 59 41 32 17 34 16 117 -23
47 -22 98 -49 114 -61 22 -15 42 -20 76 -18 44 3 45 4 39 28 -4 14 -8 160 -9
325 -2 327 -15 474 -66 775 -41 241 -127 675 -144 730 -8 25 -40 141 -70 259
-63 243 -142 500 -187 611 -83 199 -154 287 -563 695 -278 277 -385 373 -404
361 -6 -4 -28 4 -49 18 -57 36 -186 98 -280 136 -45 18 -81 35 -78 37 13 13
199 82 207 77 5 -3 9 -16 9 -30 0 -27 8 -30 33 -11 16 11 16 14 2 35 -9 12
-21 20 -26 17 -22 -14 -5 8 35 45 56 52 137 213 144 286 4 50 2 54 -38 97 -23
26 -54 49 -71 52 -16 4 -33 14 -39 23 -5 9 -10 12 -10 6z m-3980 -2058 c0 -25
-6 -38 -26 -51 -14 -9 -28 -15 -30 -12 -7 6 38 97 48 97 4 0 8 -15 8 -34z"/>
<path d="M27973 19626 c3 -8 9 -31 13 -51 8 -46 -17 -79 -54 -70 -24 6 -25 4
-19 -34 7 -53 48 -191 57 -191 4 0 5 33 2 73 -5 78 12 156 49 229 l20 38 -26
10 c-36 14 -48 12 -42 -4z"/>
<path d="M18622 17328 c3 -54 32 -175 112 -461 59 -214 107 -396 107 -405 0
-10 -3 -35 -6 -57 -6 -34 7 -81 84 -310 50 -148 110 -342 134 -430 46 -166 64
-244 192 -825 82 -371 125 -515 185 -625 21 -38 41 -90 45 -115 4 -25 11 -49
15 -55 4 -5 38 -201 75 -435 76 -487 124 -739 200 -1065 30 -127 59 -264 65
-305 7 -41 18 -97 25 -125 8 -27 17 -99 20 -160 10 -181 73 -768 86 -803 5
-13 9 -146 10 -295 0 -150 4 -307 8 -350 12 -138 -41 -327 -123 -432 -78 -101
-125 -149 -181 -183 -33 -19 -91 -65 -130 -100 -76 -70 -103 -84 -251 -132
-55 -17 -128 -46 -164 -63 l-65 -32 -300 -1 c-271 -1 -305 -2 -350 -20 -45
-17 -77 -19 -295 -18 -240 0 -366 11 -475 39 -115 31 -219 66 -263 89 -38 20
-81 29 -227 47 l-180 21 -160 85 c-239 127 -292 167 -341 255 -105 188 -199
409 -225 532 -28 127 -58 236 -77 271 -24 45 -35 411 -21 696 10 206 9 229 -6
259 -12 23 -15 45 -11 71 3 20 6 106 7 191 0 133 22 387 75 876 5 41 13 67 24
75 26 19 29 28 50 169 10 73 50 293 88 488 39 195 84 441 102 545 18 105 38
200 46 212 8 12 14 47 14 78 0 146 149 768 305 1275 29 96 68 229 85 295 17
66 58 201 90 300 84 256 90 280 101 380 5 50 14 104 19 120 13 40 -1 89 -26
93 -15 2 -31 -21 -81 -115 -124 -237 -209 -459 -288 -748 -24 -88 -64 -223
-89 -300 -125 -387 -226 -810 -271 -1135 -8 -63 -31 -185 -50 -270 -18 -85
-37 -200 -40 -255 -4 -55 -25 -183 -47 -285 -73 -344 -98 -474 -149 -770 -28
-162 -56 -306 -64 -320 -7 -14 -18 -68 -25 -120 -27 -224 -42 -321 -60 -415
-54 -275 -77 -488 -91 -845 -21 -531 -26 -625 -40 -743 -11 -98 -11 -129 0
-190 8 -39 17 -99 21 -132 7 -61 36 -162 51 -179 5 -6 9 -27 9 -48 0 -130 170
-436 382 -688 136 -162 209 -226 253 -222 25 3 41 -4 68 -27 20 -18 67 -42
108 -55 41 -13 117 -43 169 -66 372 -165 451 -190 690 -221 80 -10 572 -15
588 -6 4 3 59 8 122 11 63 4 122 9 130 11 8 2 121 16 250 30 129 13 262 31
295 39 33 8 72 12 86 9 19 -4 83 24 255 110 126 63 239 117 250 121 45 14 266
264 430 486 100 135 179 290 202 395 16 76 36 335 28 380 -14 90 -23 211 -16
220 4 6 2 78 -6 160 -8 83 -18 218 -24 300 -5 83 -20 222 -34 310 -16 98 -26
202 -26 270 0 61 -9 169 -19 240 -11 72 -26 177 -35 235 -8 58 -29 206 -46
328 -17 123 -47 296 -66 385 -19 89 -48 225 -64 302 -142 685 -261 1191 -351
1499 -71 239 -81 274 -128 420 -22 72 -44 146 -47 165 -17 101 -146 548 -224
781 -49 146 -119 373 -156 505 -131 475 -178 606 -246 684 -35 39 -68 112 -68
147 0 15 -6 24 -16 24 -13 0 -15 -12 -12 -72z"/>
<path d="M27890 17070 c7 -14 21 -36 30 -50 9 -14 25 -48 34 -75 16 -50 64
-131 72 -122 14 14 -79 207 -119 244 -29 28 -29 28 -17 3z"/>
<path d="M28175 15150 c-38 -11 -74 -20 -80 -21 -11 -1 2 -5 129 -38 66 -18
85 -19 112 -9 35 13 64 0 64 -29 0 -7 10 -27 22 -44 28 -37 18 -58 -37 -73
-34 -10 -40 -16 -56 -66 -10 -30 -19 -56 -19 -57 0 -1 8 0 18 1 9 2 37 6 62
10 25 4 59 15 75 26 33 22 65 26 82 9 14 -14 68 -3 88 18 66 65 -81 196 -301
268 -42 14 -79 25 -83 24 -3 0 -37 -9 -76 -19z"/>
<path d="M27968 15088 c9 -9 15 -9 24 0 9 9 7 12 -12 12 -19 0 -21 -3 -12 -12z"/>
<path d="M27209 14249 l-24 -20 28 17 c15 9 27 18 27 20 0 8 -8 4 -31 -17z"/>
<path d="M27119 14173 c-13 -16 -12 -17 4 -4 16 13 21 21 13 21 -2 0 -10 -8
-17 -17z"/>
<path d="M26729 13863 c-13 -16 -12 -17 4 -4 9 7 17 15 17 17 0 8 -8 3 -21
-13z"/>
<path d="M26679 13823 c-13 -16 -12 -17 4 -4 9 7 17 15 17 17 0 8 -8 3 -21
-13z"/>
<path d="M26639 13793 c-13 -16 -12 -17 4 -4 9 7 17 15 17 17 0 8 -8 3 -21
-13z"/>
<path d="M26309 13523 c-13 -16 -12 -17 4 -4 16 13 21 21 13 21 -2 0 -10 -8
-17 -17z"/>
<path d="M31871 12724 c0 -11 3 -14 6 -6 3 7 2 16 -1 19 -3 4 -6 -2 -5 -13z"/>
<path d="M31737 11883 c-19 -32 -64 -96 -98 -143 -35 -47 -93 -126 -130 -176
-37 -50 -74 -106 -82 -125 -14 -34 -104 -128 -163 -171 -65 -48 -168 -145
-252 -237 -47 -53 -78 -89 -67 -80 22 17 98 58 157 82 20 9 48 32 63 51 15 19
64 72 110 118 45 46 108 122 139 171 32 48 62 87 67 87 6 0 1 -13 -10 -29 -23
-32 -26 -41 -12 -41 19 0 72 67 83 105 7 22 25 59 40 82 16 23 46 77 68 120
25 50 49 84 65 93 32 17 61 64 70 113 10 53 -6 46 -48 -20z"/>
<path d="M30579 10643 c-13 -16 -12 -17 4 -4 9 7 17 15 17 17 0 8 -8 3 -21
-13z"/>
<path d="M28642 10575 c-59 -50 -77 -114 -48 -180 12 -29 13 -28 50 77 21 59
36 112 34 118 -2 8 -16 2 -36 -15z"/>
<path d="M28629 10346 c24 -28 82 -53 191 -82 101 -27 105 -27 151 -11 26 10
60 17 75 17 16 0 35 4 42 9 19 12 -19 21 -88 21 -101 0 -254 24 -365 57 -18 5
-18 4 -6 -11z"/>
<path d="M27697 9316 c-8 -8 -33 -59 -56 -113 -57 -132 -113 -247 -152 -313
l-33 -54 29 21 c41 30 337 309 347 328 6 9 5 15 -2 15 -5 0 -10 15 -10 34 0
65 -84 121 -123 82z"/>
<path d="M13455 9301 c-182 -65 -356 -220 -512 -456 -89 -134 -128 -220 -157
-345 -13 -58 -41 -145 -62 -195 -33 -79 -38 -102 -41 -190 -6 -133 6 -156 108
-207 64 -32 83 -37 146 -37 83 -1 145 19 218 68 26 18 48 31 49 29 1 -2 15
-53 29 -115 40 -163 98 -335 240 -708 69 -181 142 -375 162 -430 61 -165 110
-248 200 -344 45 -47 123 -148 174 -224 96 -142 210 -272 316 -360 33 -28 112
-99 175 -158 196 -184 345 -297 600 -453 429 -264 738 -425 1025 -536 88 -34
180 -70 205 -80 25 -10 104 -36 175 -58 478 -147 696 -190 958 -191 92 0 172
-3 176 -6 5 -2 72 -5 149 -6 116 -1 152 3 204 19 52 17 99 21 278 25 549 13
932 123 1363 390 159 100 165 103 247 142 31 14 96 57 145 95 50 38 110 81
135 96 190 113 278 182 473 374 219 213 394 399 483 512 32 40 99 114 149 163
50 50 153 156 228 238 76 81 142 147 146 147 4 0 15 -24 24 -53 44 -139 168
-247 284 -247 89 0 193 85 252 205 53 108 64 197 58 459 -10 448 -85 717 -211
767 -17 7 -49 29 -71 51 -44 41 -132 78 -187 78 -92 0 -174 -59 -222 -159 -26
-55 -32 -81 -34 -153 -2 -49 -6 -88 -9 -88 -3 0 -30 16 -59 35 -105 70 -303
141 -454 164 -41 7 -111 23 -155 37 -44 13 -141 33 -215 44 -74 11 -178 29
-230 39 -52 11 -135 27 -185 36 -49 9 -157 42 -240 72 -294 109 -445 154 -530
160 -44 3 -114 16 -155 30 -143 47 -449 111 -660 137 -285 36 -573 55 -660 44
-31 -4 -70 -3 -90 3 -19 6 -89 14 -155 19 -123 8 -220 36 -287 82 -40 27 -102
47 -203 64 -49 8 -198 41 -330 74 -208 50 -306 70 -489 97 -22 3 -65 14 -95
25 -62 21 -232 58 -386 83 -222 37 -315 46 -460 44 -126 -2 -161 2 -220 19
-121 36 -348 91 -405 97 -30 4 -89 14 -130 22 -49 11 -143 17 -270 19 -277 4
-471 -21 -639 -81 -40 -15 -75 -25 -77 -22 -2 2 3 21 11 41 9 20 27 85 41 143
22 90 25 125 23 218 -5 131 -15 152 -89 190 -42 21 -62 25 -137 24 -57 0 -105
-7 -138 -18z m1055 -1106 c85 -14 243 -48 350 -76 269 -67 311 -76 420 -89 52
-7 102 -18 110 -26 72 -63 465 -161 739 -183 67 -6 125 -12 130 -15 5 -3 54
-12 110 -21 109 -16 284 -20 341 -6 25 5 64 2 124 -10 106 -21 166 -44 306
-116 78 -40 111 -63 128 -89 13 -20 57 -56 100 -84 42 -27 91 -60 108 -74 18
-14 45 -33 60 -41 37 -19 139 -19 213 -1 156 41 500 45 856 11 194 -19 516
-84 675 -137 100 -34 145 -43 225 -48 58 -4 157 -21 235 -39 l135 -33 375 -3
c349 -3 448 -9 471 -32 4 -4 14 -84 21 -177 16 -198 23 -183 -108 -216 -43
-11 -108 -35 -144 -54 -36 -18 -86 -36 -112 -40 -48 -7 -75 -27 -63 -46 5 -9
10 -9 18 -1 17 17 67 13 85 -8 38 -41 113 -61 236 -61 l115 0 6 -47 c4 -27 11
-61 16 -77 11 -34 2 -158 -14 -201 -21 -56 -127 -183 -252 -303 -143 -137
-197 -169 -355 -208 -60 -15 -138 -45 -210 -81 -63 -31 -146 -65 -185 -75 -39
-10 -94 -34 -123 -54 -82 -54 -133 -81 -179 -93 -23 -6 -77 -29 -120 -50 -241
-119 -512 -191 -833 -221 -61 -6 -114 -8 -119 -6 -4 3 -72 0 -151 -6 -107 -8
-219 -8 -425 1 -436 19 -616 35 -710 65 -44 14 -134 39 -200 56 -347 90 -452
128 -755 273 -510 244 -716 350 -817 419 -122 84 -430 319 -591 451 -71 58
-64 42 -117 292 -20 94 -47 222 -61 285 -13 63 -24 120 -24 127 0 9 18 13 58
13 31 0 96 5 144 11 64 8 92 7 108 -1 31 -17 70 11 70 49 0 23 -11 38 -47 69
-67 55 -90 68 -159 90 -34 11 -82 36 -107 55 -25 19 -68 43 -96 52 l-50 16
-14 67 c-8 37 -29 150 -47 252 -17 102 -46 261 -63 353 -18 92 -31 170 -29
171 2 2 11 2 20 1 9 -2 87 -15 172 -30z"/>
<path d="M8296 9023 c45 -82 52 -91 77 -104 11 -6 -6 26 -43 80 -34 50 -64 91
-66 91 -3 0 12 -30 32 -67z"/>
<path d="M3838 13354 c-35 -19 -58 -63 -58 -111 0 -27 -6 -42 -19 -50 -21 -13
-62 -117 -82 -203 -6 -30 -16 -71 -21 -90 -6 -19 -12 -123 -15 -231 -5 -195 3
-326 31 -461 13 -63 13 -62 19 122 3 102 13 235 22 295 17 119 49 265 64 294
7 12 6 22 -1 29 -9 9 -8 24 5 59 9 27 26 106 37 178 12 71 28 142 36 157 8 16
13 28 12 28 -2 -1 -15 -7 -30 -16z"/>
<path d="M3696 11995 c7 -237 87 -425 279 -655 99 -118 160 -168 85 -70 -15
19 -34 49 -42 65 -9 17 -30 57 -48 90 -17 33 -58 119 -90 190 -32 72 -65 144
-74 160 -9 17 -16 42 -16 57 0 15 -20 65 -44 111 -26 48 -47 103 -49 128 -3
24 -3 -10 -1 -76z"/>
<path d="M4167 11136 c23 -21 70 -76 104 -124 113 -157 164 -210 221 -227 29
-8 55 -15 60 -15 5 0 -42 51 -104 113 -63 61 -138 141 -168 176 -34 39 -74 73
-105 88 l-50 25 42 -36z"/>
<path d="M5420 10280 c8 -5 22 -9 30 -9 10 0 8 3 -5 9 -27 12 -43 12 -25 0z"/>
<path d="M5480 10262 c31 -20 239 -71 332 -81 117 -13 241 -14 234 -2 -3 4
-58 11 -123 15 -110 7 -164 16 -318 52 -85 20 -144 28 -125 16z"/>
<path d="M6903 10233 c-7 -2 -52 -12 -100 -22 -83 -16 -87 -18 -63 -31 38 -20
102 -17 143 9 46 28 61 61 20 44z"/>
<path d="M6068 10173 c6 -2 18 -2 25 0 6 3 1 5 -13 5 -14 0 -19 -2 -12 -5z"/>
<path d="M28100 7291 c-14 -4 -47 -23 -73 -41 -55 -37 -146 -166 -203 -288
-31 -67 -35 -83 -31 -136 2 -34 8 -71 12 -83 6 -18 4 -23 -11 -23 -35 0 -170
-92 -260 -176 -30 -28 -56 -43 -83 -48 -85 -13 -128 -86 -97 -161 9 -20 16
-48 16 -62 0 -49 57 -121 113 -142 16 -6 50 -11 76 -11 32 0 57 -6 72 -18 13
-11 53 -35 89 -55 36 -21 97 -59 135 -87 39 -27 98 -68 133 -91 34 -24 62 -46
62 -50 0 -3 -13 -9 -29 -12 -38 -8 -119 -106 -170 -209 -22 -42 -43 -72 -47
-68 -5 5 -22 15 -37 23 l-28 15 36 38 c20 21 41 46 45 55 15 27 -7 90 -43 127
-28 28 -45 36 -85 40 -27 2 -58 -1 -70 -7 -24 -13 -82 -95 -82 -116 0 -8 -4
-16 -9 -19 -10 -7 -101 29 -101 40 0 17 45 59 80 75 69 31 91 115 47 180 -55
82 -138 100 -240 53 -131 -59 -256 -307 -205 -404 16 -29 96 -92 158 -124 222
-113 407 -225 511 -309 68 -55 108 -66 162 -44 35 15 77 67 77 95 0 24 72 166
105 207 83 105 110 185 85 250 -10 26 -9 26 19 20 17 -3 45 1 69 11 54 21 84
69 84 133 0 81 -34 126 -151 197 -35 21 -65 44 -68 51 -3 6 5 37 16 68 23 62
27 115 10 148 -37 71 -105 99 -175 72 -34 -13 -47 -25 -63 -59 -12 -23 -21
-52 -21 -63 0 -20 -4 -20 -65 15 -36 19 -65 39 -65 44 0 4 10 13 23 20 63 36
166 122 177 148 7 16 10 50 8 75 -2 25 -1 45 2 45 4 0 46 -24 96 -53 237 -142
363 -222 406 -258 64 -53 95 -69 141 -69 50 0 93 23 112 60 22 43 19 118 -8
165 -25 44 -140 136 -224 181 -29 16 -53 31 -53 34 0 3 12 22 26 41 95 125 81
245 -33 278 -71 20 -143 -29 -198 -134 l-28 -53 -46 20 c-25 10 -50 23 -55 28
-13 13 59 117 121 175 63 59 76 100 48 159 -31 64 -144 110 -215 87z"/>
<path d="M26956 5455 c-41 -21 -78 -62 -111 -120 -15 -27 -36 -60 -47 -72 -30
-33 -34 -92 -9 -140 27 -55 72 -85 132 -91 62 -6 102 11 140 59 17 22 35 39
40 39 24 0 136 -64 189 -107 63 -52 100 -106 100 -146 0 -63 -108 -225 -190
-285 -84 -63 -94 -169 -22 -245 39 -41 79 -59 131 -60 38 -1 56 6 106 41 80
55 191 191 243 297 79 161 67 329 -34 482 -51 78 -213 209 -317 257 -222 103
-292 122 -351 91z"/>
<path d="M26415 4844 c-55 -36 -113 -78 -128 -92 -35 -33 -67 -93 -67 -125 0
-13 -9 -32 -20 -42 -29 -27 -44 -89 -30 -130 13 -40 146 -154 305 -262 18 -12
85 -70 150 -130 64 -59 129 -116 143 -125 37 -25 115 -22 173 5 55 26 235 211
245 252 18 74 -22 167 -86 200 -36 19 -113 19 -148 1 -15 -8 -50 -40 -78 -71
l-51 -56 -45 38 c-25 21 -54 43 -64 49 -18 10 -17 14 19 53 48 53 51 105 10
151 -56 61 -126 56 -191 -14 l-41 -44 -46 29 c-58 37 -55 42 67 106 50 26 101
60 114 76 70 83 18 197 -91 197 -34 0 -59 -12 -140 -66z"/>
<path d="M25735 4042 c-41 -25 -56 -45 -65 -88 -12 -53 4 -87 67 -136 30 -23
98 -79 151 -123 54 -44 123 -97 154 -118 32 -21 94 -69 139 -107 44 -39 92
-73 107 -76 15 -3 33 -7 40 -10 23 -7 113 16 141 35 26 19 31 27 65 105 17 38
42 74 132 189 55 70 64 89 64 132 0 114 -140 202 -239 150 -16 -8 -68 -63
-116 -122 -48 -59 -91 -109 -94 -111 -10 -4 -153 90 -230 152 -36 28 -99 72
-140 99 -84 52 -126 59 -176 29z"/>
<path d="M25410 3703 c-89 -16 -141 -46 -246 -147 -95 -90 -108 -107 -122
-156 -9 -30 -16 -75 -16 -100 -1 -45 -1 -45 -33 -42 -50 6 -96 -15 -154 -69
-30 -28 -119 -105 -198 -171 -136 -114 -171 -156 -171 -201 0 -15 76 -112 153
-195 24 -26 74 -81 112 -122 37 -41 77 -83 88 -93 28 -24 14 -32 -32 -19 -21
7 -50 12 -64 12 -49 0 -57 9 -57 60 0 43 -5 55 -41 97 -22 26 -64 60 -92 76
-49 26 -58 27 -147 23 -80 -3 -106 -9 -163 -35 -118 -53 -307 -225 -320 -290
-5 -22 -12 -31 -26 -31 -27 0 -124 -68 -256 -179 -61 -50 -198 -154 -305 -231
-191 -137 -240 -183 -240 -228 0 -34 54 -62 120 -62 84 0 123 15 214 85 l84
64 43 -47 c42 -45 175 -169 324 -302 176 -157 298 -196 374 -120 51 52 49 136
-6 223 -14 22 -86 103 -159 179 -170 178 -264 282 -264 296 0 5 27 30 59 54
32 24 74 64 93 88 19 25 39 45 45 45 20 0 226 -191 364 -337 150 -158 195
-188 282 -188 88 0 138 61 122 148 -11 57 -26 80 -138 197 -83 87 -101 111
-88 117 30 12 137 8 187 -7 175 -56 300 -83 347 -75 73 13 122 93 98 161 -15
43 -14 49 8 49 10 0 29 10 42 23 34 33 151 165 169 191 29 42 171 166 190 166
16 0 50 67 50 99 0 30 2 31 41 31 22 0 49 4 59 10 10 5 47 12 81 16 76 7 97
17 171 84 58 52 105 114 151 202 42 79 44 204 6 300 -18 45 -123 127 -196 154
-57 21 -77 23 -143 18 -77 -7 -77 -6 -84 19 -8 35 -89 113 -147 142 -47 24
-101 30 -169 18z m32 -300 c-1 -23 -6 -51 -10 -63 -7 -20 -10 -19 -50 18 -41
36 -42 39 -25 54 59 51 89 48 85 -9z m408 -177 c0 -28 -124 -166 -149 -166 -9
0 -76 69 -70 73 2 1 20 11 39 20 19 10 60 33 90 52 57 37 90 44 90 21z m-740
-52 c8 -7 43 -35 76 -62 75 -58 234 -204 234 -213 0 -4 -11 -10 -24 -13 -55
-14 -261 -207 -312 -292 -11 -18 -13 -18 -43 10 -29 28 -30 31 -14 48 9 10 32
28 50 39 84 52 84 178 0 229 -59 36 -176 19 -211 -31 -7 -10 -24 -27 -38 -38
-23 -18 -27 -19 -47 -5 -21 15 -21 16 46 66 146 109 231 187 243 223 7 20 9
43 6 51 -6 16 4 12 34 -12z m-760 -756 c0 -21 -39 -78 -53 -78 -7 0 -28 16
-47 35 l-33 34 24 10 c36 15 109 13 109 -1z"/>
</g>
</svg>
